<svg id="Capa_1" enable-background="new 0 0 511.465 511.465" height="512" viewBox="0 0 511.465 511.465" width="512" xmlns="http://www.w3.org/2000/svg"><g><g><g><path d="m218.935 81.947-38.369-14.913c-1.929-.75-4.1.206-4.85 2.135-11.904 30.627 3.274 65.105 33.901 77.009l41.862 16.271h4.254l10-19.094-10-17.523c-3.841-19.272-17.124-36.238-36.798-43.885z" fill="#00ec89"/><path d="m335.749 69.169c-.75-1.929-2.921-2.885-4.85-2.135l-38.369 14.913c-19.674 7.647-32.957 24.613-36.797 43.886v36.616h4.254l41.862-16.271c30.626-11.904 45.804-46.382 33.9-77.009z" fill="#00cbb1"/></g><g><g><path d="m52.764 197.353v80.938l10 14.384-10 15.616v101.229h202.968l10-115.799-10-96.368z" fill="#ebae6e"/><path d="m458.701 197.353h-202.969v212.167h202.969v-101.138l-10-12.369 10-17.66z" fill="#e48359"/></g><g><path d="m223.039 291.505c-5.559 4.376-8.621 6.787-16.129 6.787s-10.57-2.411-16.128-6.786c-7.084-5.577-16.786-13.214-34.685-13.214s-27.602 7.637-34.686 13.213c-5.559 4.376-8.622 6.787-16.13 6.787s-10.57-2.411-16.129-6.786c-7.084-5.577-16.786-13.214-34.685-13.214-.576 0-1.143.04-1.702.103v29.794c.559.063 1.125.103 1.702.103 7.508 0 10.57 2.411 16.129 6.786 7.084 5.577 16.786 13.214 34.685 13.214s27.602-7.637 34.686-13.213c5.559-4.376 8.622-6.787 16.13-6.787s10.57 2.411 16.129 6.786c7.083 5.577 16.786 13.214 34.685 13.214s27.601-7.637 34.685-13.214c5.037-3.965 8.035-6.309 14.138-6.716l10-14.64-10-15.377c-16.624.547-25.881 7.796-32.695 13.16z" fill="#f3d48d"/><path d="m426.31 291.504c-5.56 4.376-8.623 6.787-16.134 6.787-7.51 0-10.573-2.411-16.133-6.787-7.085-5.576-16.788-13.213-34.688-13.213-17.899 0-27.601 7.637-34.685 13.213-5.559 4.376-8.622 6.787-16.13 6.787-7.509 0-10.571-2.411-16.13-6.787-7.085-5.576-16.787-13.213-34.686-13.213-.683 0-1.332.031-1.991.053v30.017c.632-.042 1.286-.07 1.991-.07 7.509 0 10.571 2.411 16.13 6.787 7.085 5.576 16.787 13.213 34.686 13.213s27.602-7.637 34.686-13.214c5.559-4.376 8.622-6.786 16.129-6.786 7.511 0 10.574 2.411 16.134 6.787 7.085 5.576 16.788 13.213 34.688 13.213s27.604-7.637 34.688-13.213c4.954-3.899 7.935-6.233 13.836-6.696v-30.029c-16.432.625-25.618 7.821-32.391 13.151z" fill="#ebae6e"/></g><g><path d="m255.723 143.355c-26.74 0-26.74 21.26-53.481 21.26-26.74 0-26.74-21.26-53.48-21.26-26.742 0-26.742 21.26-53.483 21.26-6.47 0-11.374-1.245-15.471-3.131-17.761-8.18-38.01 4.897-38.01 24.451v25.339c0 3.476 2.571 6.408 6.013 6.888 20.904 2.914 22.899 20.862 47.468 20.862 26.742 0 26.742-21.259 53.483-21.259 26.74 0 26.74 21.259 53.48 21.259s26.74-21.259 53.481-21.259h.009l10-36.006-10-38.402c-.003-.001-.006-.002-.009-.002z" fill="#faf0ba"/><path d="m469.667 185.932c0-19.554-20.25-32.635-38.009-24.452-4.099 1.889-9.006 3.135-15.48 3.135-26.744 0-26.744-21.26-53.489-21.26-26.741 0-26.741 21.26-53.482 21.26-26.739 0-26.742-21.254-53.474-21.259v74.408c26.732.005 26.736 21.259 53.474 21.259 26.741 0 26.741-21.259 53.482-21.259 26.745 0 26.745 21.259 53.489 21.259 24.573 0 26.568-17.948 47.476-20.862 3.442-.48 6.013-3.413 6.013-6.888z" fill="#f3d48d"/></g></g></g><g><path d="m8.014 380.815c-4.762 0-8.54 4.144-7.954 8.87 3.979 32.126 29.389 55.001 60.141 55.001h195.532l10-35.166-10-28.705z" fill="#745179"/><path d="m503.451 380.815h-247.719v63.872h195.532c30.752 0 56.161-22.875 60.141-55.001.585-4.727-3.192-8.871-7.954-8.871z" fill="#614166"/><g><path d="m12.122 358.588c-6.695 0-12.122 5.428-12.122 12.123v18.974h255.702l10-18.979-10-12.118z" fill="#614166"/><path d="m511.405 370.711c0-6.695-5.427-12.122-12.122-12.122h-243.58v31.097h255.702z" fill="#37223a"/></g></g></g></svg>